<?xml version="1.0" standalone="no"?>
<!DOCTYPE svg PUBLIC "-//W3C//DTD SVG 20010904//EN"
 "http://www.w3.org/TR/2001/REC-SVG-20010904/DTD/svg10.dtd">
<svg version="1.0" xmlns="http://www.w3.org/2000/svg"
 width="437.000000pt" height="437.000000pt" viewBox="0 0 437.000000 437.000000"
 preserveAspectRatio="xMidYMid meet">
<metadata>
Created by potrace 1.11, written by Peter Selinger 2001-2013
</metadata>
<g transform="translate(0.000000,437.000000) scale(0.100000,-0.100000)"
fill="#000000" stroke="none">
<path d="M1147 3583 c-367 -2 -667 -6 -667 -9 0 -13 26 -53 69 -104 25 -30 53
-63 61 -73 8 -10 23 -28 34 -40 31 -37 367 -453 441 -548 92 -117 391 -488
414 -514 9 -11 109 -135 221 -275 112 -140 209 -261 216 -269 11 -12 18 -9 46
20 58 61 133 151 140 170 6 14 -13 45 -79 126 -47 60 -102 127 -122 150 -20
23 -44 52 -53 65 -45 60 -87 112 -120 148 -10 11 -30 37 -45 58 -30 40 -46 61
-76 93 -10 11 -35 42 -55 68 -20 26 -66 82 -102 125 -36 43 -85 105 -110 137
-25 32 -99 125 -166 206 -126 154 -148 186 -137 197 3 3 148 6 320 6 l314 0
25 -27 c14 -15 70 -84 126 -154 122 -154 110 -154 230 1 6 8 19 24 29 35 32
38 31 58 -4 95 -19 19 -74 87 -125 150 -92 117 -143 172 -152 168 -3 -2 -305
-4 -673 -5z"/>
<path d="M2523 3550 c-27 -29 -114 -133 -166 -200 -20 -25 -107 -133 -137
-170 -16 -19 -128 -158 -249 -307 -184 -229 -218 -277 -213 -296 4 -12 38 -62
77 -110 62 -78 73 -87 95 -82 14 4 27 11 28 16 3 8 164 210 234 294 10 11 57
70 105 130 87 110 104 131 133 164 8 9 28 35 44 56 16 22 35 47 43 55 7 8 24
28 38 44 14 16 25 32 25 36 0 4 29 37 65 73 l64 67 309 0 c170 0 311 -3 315
-6 11 -11 -30 -66 -195 -263 -29 -35 -69 -85 -90 -112 -48 -65 -150 -191 -164
-204 -7 -5 -33 -36 -58 -67 -52 -65 -58 -99 -23 -133 12 -12 44 -52 71 -89 66
-90 79 -88 156 19 24 33 53 70 64 82 12 11 26 27 31 35 6 7 23 31 40 53 16 22
46 58 67 80 21 21 38 43 38 47 0 4 8 16 19 27 10 10 66 79 125 152 59 74 122
152 141 174 140 166 354 443 352 454 -2 11 -113 14 -677 15 l-674 1 -33 -35z"/>
<path d="M2389 2816 c-30 -42 -97 -122 -127 -151 -29 -30 -23 -57 26 -112 36
-41 57 -67 97 -119 11 -15 37 -45 58 -66 20 -22 37 -43 37 -48 0 -4 11 -18 25
-31 13 -13 25 -29 25 -34 0 -6 8 -18 18 -27 9 -9 26 -29 37 -44 11 -15 30 -37
43 -49 12 -12 22 -26 22 -30 0 -5 7 -15 15 -24 14 -16 55 -62 85 -97 24 -28
63 -78 85 -108 11 -15 30 -39 43 -52 12 -14 22 -29 22 -35 0 -5 7 -9 15 -9 8
0 15 -6 15 -13 0 -8 11 -24 25 -37 14 -13 25 -27 25 -32 0 -4 16 -25 35 -45
19 -21 66 -78 105 -128 38 -49 85 -107 105 -127 19 -20 35 -40 35 -44 0 -4 12
-17 26 -30 14 -13 23 -28 20 -33 -3 -4 -143 -8 -311 -7 -258 1 -307 3 -315 16
-15 24 -54 72 -72 89 -10 8 -18 20 -18 25 0 5 -10 19 -22 31 -13 13 -32 36
-43 50 -40 55 -85 96 -98 89 -21 -13 -57 -49 -57 -58 0 -5 -9 -18 -20 -30 -55
-56 -110 -128 -110 -143 0 -8 10 -26 23 -38 35 -36 67 -76 67 -86 0 -5 7 -9
15 -9 8 0 15 -6 15 -13 0 -7 11 -23 25 -35 14 -12 25 -27 25 -32 0 -6 15 -26
34 -45 19 -19 37 -44 41 -55 15 -47 28 -48 733 -48 385 -1 673 3 688 8 33 13
30 37 -11 79 -31 33 -64 70 -105 118 -8 9 -36 44 -62 78 -26 33 -62 76 -81 95
-18 19 -36 43 -40 53 -3 9 -11 17 -16 17 -6 0 -17 12 -25 28 -8 15 -28 41 -45
57 -17 17 -31 34 -31 39 0 5 -11 20 -25 35 -57 59 -65 68 -65 76 0 9 -115 153
-137 171 -7 6 -13 16 -13 21 0 6 -20 32 -45 57 -25 26 -45 51 -45 55 0 4 -11
18 -25 31 -14 13 -25 28 -25 32 0 5 -16 24 -35 42 -19 19 -35 40 -35 47 0 8
-12 26 -27 40 -32 29 -93 99 -93 106 0 5 -39 56 -64 83 -7 8 -37 44 -65 80
-29 36 -59 69 -67 73 -8 4 -14 14 -14 20 0 7 -8 20 -17 28 -24 21 -96 107
-107 128 -5 9 -15 20 -23 24 -7 4 -13 14 -13 22 0 8 -11 22 -25 31 -14 9 -25
23 -25 30 0 8 -7 17 -15 20 -8 4 -15 12 -15 20 0 9 -11 14 -28 14 -21 0 -35
-9 -53 -34z"/>
<path d="M1427 2204 c-15 -8 -27 -18 -27 -23 0 -8 -173 -228 -189 -241 -3 -3
-19 -22 -34 -43 -16 -20 -38 -48 -50 -61 -12 -14 -31 -37 -42 -52 -22 -30 -51
-66 -75 -93 -8 -9 -46 -55 -85 -101 -38 -47 -75 -92 -82 -100 -7 -8 -45 -55
-83 -105 -38 -49 -76 -97 -83 -105 -7 -8 -44 -53 -81 -100 -38 -47 -73 -89
-80 -95 -7 -5 -19 -21 -29 -34 -35 -52 -49 -51 677 -51 369 0 681 3 692 6 12
3 26 15 31 27 9 20 34 51 103 128 14 15 34 40 45 55 11 14 29 37 40 50 90 106
105 126 105 137 0 10 26 42 83 98 20 21 37 42 37 46 1 4 19 26 40 48 22 22 40
42 40 46 0 3 10 17 23 31 12 14 31 38 42 54 11 15 30 37 43 48 12 11 22 23 22
27 0 5 15 23 33 41 17 18 38 45 44 61 7 15 17 27 23 27 16 0 39 61 29 74 -77
95 -139 177 -139 184 0 21 -23 30 -46 20 -13 -6 -24 -14 -24 -18 0 -4 -16 -25
-35 -46 -19 -21 -41 -46 -49 -54 -7 -8 -25 -35 -39 -60 -14 -25 -52 -73 -84
-107 -77 -82 -115 -128 -135 -164 -9 -17 -43 -60 -75 -96 -87 -98 -97 -108
-115 -134 -80 -112 -120 -164 -168 -220 l-24 -29 -313 0 c-171 0 -314 4 -317
9 -3 4 6 19 19 31 14 13 25 29 25 36 0 7 9 16 20 19 11 3 20 12 20 18 0 7 16
28 35 46 19 19 38 44 41 55 4 11 14 27 24 35 9 9 66 77 125 151 60 74 115 142
124 152 9 9 25 28 36 43 11 15 29 36 40 48 11 12 26 35 33 50 10 23 9 32 -5
55 -10 15 -20 29 -24 32 -17 14 -109 130 -109 138 0 18 -25 20 -53 6z"/>
</g>
</svg>
