<?xml version="1.0" standalone="no"?>
<!DOCTYPE svg PUBLIC "-//W3C//DTD SVG 20010904//EN"
 "http://www.w3.org/TR/2001/REC-SVG-20010904/DTD/svg10.dtd">
<svg version="1.0" xmlns="http://www.w3.org/2000/svg"
 width="128.000000pt" height="128.000000pt" viewBox="0 0 128.000000 128.000000"
 preserveAspectRatio="xMidYMid meet">
<metadata>
Created by potrace 1.11, written by Peter Selinger 2001-2013
</metadata>
<g transform="translate(0.000000,128.000000) scale(0.100000,-0.100000)"
fill="#000000" stroke="none">
<path d="M971 1170 l-225 -5 -46 -65 c-26 -36 -59 -78 -73 -94 -15 -16 -27
-34 -27 -41 0 -7 -10 -20 -21 -31 -30 -26 -129 -161 -129 -175 0 -16 60 -89
73 -89 7 0 33 30 60 68 99 140 143 199 166 223 13 13 34 41 47 62 l24 37 121
0 c93 0 119 -3 113 -12 -8 -13 -135 -185 -186 -250 l-29 -38 33 -45 c18 -24
38 -44 43 -44 19 0 365 463 365 488 0 19 12 18 -309 11z"/>
<path d="M0 1144 c0 -32 12 -55 69 -129 25 -33 59 -79 75 -103 16 -23 41 -54
55 -70 14 -15 40 -46 56 -69 148 -209 269 -364 283 -361 13 3 38 34 58 76 4 7
-12 38 -35 70 -23 31 -67 93 -98 137 -32 44 -65 87 -73 95 -16 16 -181 235
-194 258 -6 9 20 12 117 12 l124 0 42 -60 c23 -33 48 -60 55 -60 11 0 66 70
66 84 0 8 -63 100 -84 123 -21 22 -25 23 -268 23 l-248 0 0 -26z"/>
<path d="M677 830 c-20 -27 -37 -54 -37 -59 0 -5 18 -31 40 -56 22 -25 40 -51
40 -56 0 -5 17 -28 39 -52 21 -23 72 -89 114 -147 42 -58 80 -109 84 -115 5
-5 22 -28 38 -50 17 -22 36 -44 42 -48 34 -21 7 -27 -103 -25 -105 3 -118 5
-128 23 -26 47 -69 95 -85 95 -24 0 -84 -76 -77 -98 3 -9 16 -28 29 -42 13
-14 34 -44 47 -67 l24 -43 268 0 268 0 0 23 c0 20 -40 83 -119 187 -50 66
-137 186 -141 196 -3 6 -24 33 -48 60 -35 41 -151 194 -225 299 -10 14 -21 25
-25 25 -4 0 -24 -22 -45 -50z"/>
<path d="M295 563 c-16 -20 -39 -50 -50 -68 -11 -17 -41 -58 -67 -91 -127
-159 -178 -236 -178 -270 l0 -34 243 0 243 0 31 32 c17 18 47 54 65 80 18 26
75 102 126 169 50 67 92 126 92 132 0 18 -55 87 -70 86 -8 0 -69 -74 -135
-165 -66 -91 -128 -176 -138 -190 -18 -23 -23 -24 -138 -24 -65 0 -119 3 -119
6 0 9 156 221 188 256 24 26 24 28 8 53 -22 33 -54 65 -63 64 -5 0 -21 -17
-38 -36z"/>
</g>
</svg>
